# xmcd
#
# Track frame offsets:
#	150
#	4059
#	7942
#	29769
#	50818
#	79397
#	100034
#	125645
#	144969
#	166780
#	187548
#	216236
#	236994
#	262923
#	282027
#	282554
#	282913
#	283273
#	283635
#	283985
#	284344
#	284706
#	285065
#	285424
#	285786
#	286148
#	287014
#	287731
#	288093
#	288452
#	288810
#	289169
#	289528
#	289890
#	290252
#	290608
#	290970
#	291328
#	292211
#	293011
#	293540
#	294094
#	294616
#	295160
#	295696
#	296240
#	296776
#	297319
#	297859
#	298490
#
# Disc length: 3985 seconds
#
# Revision: 0
# Processed by: cddbd v1.5.1PL0 Copyright (c) Steve Scherf et al.
# Submitted via: EasyCDDAExtractor 8.0.1.1
#
DISCID=890f8f32
DTITLE=Play Along - Blues Power Live!
DYEAR=1900
DGENRE=Blues
TTITLE0=B-flat Tuning
TTITLE1=A Tuning
TTITLE2=Midnight at the Chicago's
TTITLE3=Breakfast in Dallas
TTITLE4=L.A.Lunch
TTITLE5=New Orleans Rainy Afternoon
TTITLE6=Blue Hour in Boston
TTITLE7=N.Y. 9 p.m.
TTITLE8=Midnight at the Chicago's (Solo)
TTITLE9=Breakfast in Dallas (Solo)
TTITLE10=L.A.Lunch(Solo)
TTITLE11=New Orleans Rainy Afternoon (Solo)
TTITLE12=Blue Hour in Boston (Solo)
TTITLE13=N.Y. 9 p.m. (Solo)
TTITLE14=Endings 1
TTITLE15=Endings 1
TTITLE16=Endings 1
TTITLE17=Endings 1
TTITLE18=Endings 1
TTITLE19=Endings 1
TTITLE20=Endings 1
TTITLE21=Endings 1
TTITLE22=Endings 1
TTITLE23=Endings 1
TTITLE24=Endings 1
TTITLE25=Endings 1
TTITLE26=Endings 2
TTITLE27=Endings 2
TTITLE28=Endings 2
TTITLE29=Endings 2
TTITLE30=Endings 2
TTITLE31=Endings 2
TTITLE32=Endings 2
TTITLE33=Endings 2
TTITLE34=Endings 2
TTITLE35=Endings 2
TTITLE36=Endings 2
TTITLE37=Endings 2
TTITLE38=Licks
TTITLE39=Licks
TTITLE40=Licks
TTITLE41=Licks
TTITLE42=Licks
TTITLE43=Licks
TTITLE44=Licks
TTITLE45=Licks
TTITLE46=Licks
TTITLE47=Licks
TTITLE48=Licks
TTITLE49=Licks
EXTD=
EXTT0=
EXTT1=
EXTT2=
EXTT3=
EXTT4=
EXTT5=
EXTT6=
EXTT7=
EXTT8=
EXTT9=
EXTT10=
EXTT11=
EXTT12=
EXTT13=
EXTT14=
EXTT15=
EXTT16=
EXTT17=
EXTT18=
EXTT19=
EXTT20=
EXTT21=
EXTT22=
EXTT23=
EXTT24=
EXTT25=
EXTT26=
EXTT27=
EXTT28=
EXTT29=
EXTT30=
EXTT31=
EXTT32=
EXTT33=
EXTT34=
EXTT35=
EXTT36=
EXTT37=
EXTT38=
EXTT39=
EXTT40=
EXTT41=
EXTT42=
EXTT43=
EXTT44=
EXTT45=
EXTT46=
EXTT47=
EXTT48=
EXTT49=
PLAYORDER=
